<?xml version="1.0" encoding="UTF-8" standalone="no"?>
<!DOCTYPE svg PUBLIC "-//W3C//DTD SVG 1.1//EN"
 "http://www.w3.org/Graphics/SVG/1.1/DTD/svg11.dtd">
<!-- Generated by graphviz version 5.0.0 (20220707.1540)
 -->
<!-- Title: dependencies Pages: 1 -->
<svg width="734pt" height="174pt"
 viewBox="0.00 0.00 734.00 173.80" xmlns="http://www.w3.org/2000/svg" xmlns:xlink="http://www.w3.org/1999/xlink">
<g id="graph0" class="graph" transform="scale(1 1) rotate(0) translate(4 169.8)">
<title>dependencies</title>
<polygon fill="white" stroke="transparent" points="-4,4 -4,-169.8 730,-169.8 730,4 -4,4"/>
<text text-anchor="middle" x="363" y="-8.2" font-family="sans-serif" font-size="14.00">dependencies</text>
<g id="clust1" class="cluster">
<title>cluster_AppModule</title>
<polygon fill="none" stroke="black" stroke-dasharray="1,5" points="8,-32.8 8,-157.8 718,-157.8 718,-32.8 8,-32.8"/>
</g>
<g id="clust6" class="cluster">
<title>cluster_AppModule_providers</title>
<polygon fill="none" stroke="black" points="580,-40.8 580,-92.8 710,-92.8 710,-40.8 580,-40.8"/>
</g>
<g id="clust3" class="cluster">
<title>cluster_AppModule_imports</title>
<polygon fill="none" stroke="black" points="16,-40.8 16,-92.8 572,-92.8 572,-40.8 16,-40.8"/>
</g>
<!-- AuthModule -->
<g id="node1" class="node">
<title>AuthModule</title>
<polygon fill="#8dd3c7" stroke="black" points="563.55,-84.8 560.55,-88.8 539.55,-88.8 536.55,-84.8 476.45,-84.8 476.45,-48.8 563.55,-48.8 563.55,-84.8"/>
<text text-anchor="middle" x="520" y="-62.6" font-family="Times,serif" font-size="14.00">AuthModule</text>
</g>
<!-- AppModule -->
<g id="node6" class="node">
<title>AppModule</title>
<polygon fill="#8dd3c7" stroke="black" points="396.66,-149.8 393.66,-153.8 372.66,-153.8 369.66,-149.8 313.34,-149.8 313.34,-113.8 396.66,-113.8 396.66,-149.8"/>
<text text-anchor="middle" x="355" y="-127.6" font-family="Times,serif" font-size="14.00">AppModule</text>
</g>
<!-- AuthModule&#45;&gt;AppModule -->
<g id="edge1" class="edge">
<title>AuthModule&#45;&gt;AppModule</title>
<path fill="none" stroke="black" d="M520,-84.82C520,-102.17 520,-125.8 520,-125.8 520,-125.8 407.06,-125.8 407.06,-125.8"/>
<polygon fill="black" stroke="black" points="407.06,-122.3 397.06,-125.8 407.06,-129.3 407.06,-122.3"/>
</g>
<!-- OrderModule -->
<g id="node2" class="node">
<title>OrderModule</title>
<polygon fill="#8dd3c7" stroke="black" points="458.2,-84.8 455.2,-88.8 434.2,-88.8 431.2,-84.8 365.8,-84.8 365.8,-48.8 458.2,-48.8 458.2,-84.8"/>
<text text-anchor="middle" x="412" y="-62.6" font-family="Times,serif" font-size="14.00">OrderModule</text>
</g>
<!-- OrderModule&#45;&gt;AppModule -->
<g id="edge2" class="edge">
<title>OrderModule&#45;&gt;AppModule</title>
<path fill="none" stroke="black" d="M381.37,-84.91C381.37,-84.91 381.37,-103.79 381.37,-103.79"/>
<polygon fill="black" stroke="black" points="377.87,-103.79 381.37,-113.79 384.87,-103.79 377.87,-103.79"/>
</g>
<!-- PrismaModule -->
<g id="node3" class="node">
<title>PrismaModule</title>
<polygon fill="#8dd3c7" stroke="black" points="348.44,-84.8 345.44,-88.8 324.44,-88.8 321.44,-84.8 249.56,-84.8 249.56,-48.8 348.44,-48.8 348.44,-84.8"/>
<text text-anchor="middle" x="299" y="-62.6" font-family="Times,serif" font-size="14.00">PrismaModule</text>
</g>
<!-- PrismaModule&#45;&gt;AppModule -->
<g id="edge3" class="edge">
<title>PrismaModule&#45;&gt;AppModule</title>
<path fill="none" stroke="black" d="M330.69,-84.91C330.69,-84.91 330.69,-103.79 330.69,-103.79"/>
<polygon fill="black" stroke="black" points="327.19,-103.79 330.69,-113.79 334.19,-103.79 327.19,-103.79"/>
</g>
<!-- ProductModule -->
<g id="node4" class="node">
<title>ProductModule</title>
<polygon fill="#8dd3c7" stroke="black" points="231.6,-84.8 228.6,-88.8 207.6,-88.8 204.6,-84.8 128.4,-84.8 128.4,-48.8 231.6,-48.8 231.6,-84.8"/>
<text text-anchor="middle" x="180" y="-62.6" font-family="Times,serif" font-size="14.00">ProductModule</text>
</g>
<!-- ProductModule&#45;&gt;AppModule -->
<g id="edge4" class="edge">
<title>ProductModule&#45;&gt;AppModule</title>
<path fill="none" stroke="black" d="M180,-84.82C180,-102.17 180,-125.8 180,-125.8 180,-125.8 303.08,-125.8 303.08,-125.8"/>
<polygon fill="black" stroke="black" points="303.08,-129.3 313.08,-125.8 303.08,-122.3 303.08,-129.3"/>
</g>
<!-- UserModule -->
<g id="node5" class="node">
<title>UserModule</title>
<polygon fill="#8dd3c7" stroke="black" points="109.99,-84.8 106.99,-88.8 85.99,-88.8 82.99,-84.8 24.01,-84.8 24.01,-48.8 109.99,-48.8 109.99,-84.8"/>
<text text-anchor="middle" x="67" y="-62.6" font-family="Times,serif" font-size="14.00">UserModule</text>
</g>
<!-- UserModule&#45;&gt;AppModule -->
<g id="edge5" class="edge">
<title>UserModule&#45;&gt;AppModule</title>
<path fill="none" stroke="black" d="M67,-85.08C67,-106.12 67,-137.8 67,-137.8 67,-137.8 303.12,-137.8 303.12,-137.8"/>
<polygon fill="black" stroke="black" points="303.12,-141.3 313.12,-137.8 303.12,-134.3 303.12,-141.3"/>
</g>
<!-- AppService -->
<g id="node7" class="node">
<title>AppService</title>
<ellipse fill="#fdb462" stroke="black" cx="645" cy="-66.8" rx="56.75" ry="18"/>
<text text-anchor="middle" x="645" y="-62.6" font-family="Times,serif" font-size="14.00">AppService</text>
</g>
<!-- AppService&#45;&gt;AppModule -->
<g id="edge6" class="edge">
<title>AppService&#45;&gt;AppModule</title>
<path fill="none" stroke="black" d="M645,-85.08C645,-106.12 645,-137.8 645,-137.8 645,-137.8 406.86,-137.8 406.86,-137.8"/>
<polygon fill="black" stroke="black" points="406.86,-134.3 396.86,-137.8 406.86,-141.3 406.86,-134.3"/>
</g>
</g>
</svg>
