<?xml version="1.0" encoding="UTF-8" standalone="no"?>
<!DOCTYPE svg PUBLIC "-//W3C//DTD SVG 1.1//EN"
 "http://www.w3.org/Graphics/SVG/1.1/DTD/svg11.dtd">
<!-- Generated by graphviz version 5.0.0 (20220707.1540)
 -->
<!-- Title: dependencies Pages: 1 -->
<svg width="1720pt" height="250pt"
 viewBox="0.00 0.00 1720.00 249.80" xmlns="http://www.w3.org/2000/svg" xmlns:xlink="http://www.w3.org/1999/xlink">
<g id="graph0" class="graph" transform="scale(1 1) rotate(0) translate(4 245.8)">
<title>dependencies</title>
<polygon fill="white" stroke="transparent" points="-4,4 -4,-245.8 1716,-245.8 1716,4 -4,4"/>
<text text-anchor="middle" x="856" y="-8.2" font-family="sans-serif" font-size="14.00">dependencies</text>
<g id="clust1" class="cluster">
<title>cluster_AppModule</title>
<polygon fill="none" stroke="black" stroke-dasharray="1,5" points="800,-32.8 800,-233.8 1406,-233.8 1406,-32.8 800,-32.8"/>
</g>
<g id="clust3" class="cluster">
<title>cluster_AppModule_imports</title>
<polygon fill="none" stroke="black" points="946,-40.8 946,-168.8 1386,-168.8 1386,-40.8 946,-40.8"/>
</g>
<g id="clust6" class="cluster">
<title>cluster_AppModule_providers</title>
<polygon fill="none" stroke="black" points="808,-116.8 808,-168.8 938,-168.8 938,-116.8 808,-116.8"/>
</g>
<g id="clust7" class="cluster">
<title>cluster_AuthModule</title>
<polygon fill="none" stroke="black" stroke-dasharray="1,5" points="8,-32.8 8,-100.8 290,-100.8 290,-32.8 8,-32.8"/>
</g>
<g id="clust12" class="cluster">
<title>cluster_AuthModule_providers</title>
<polygon fill="none" stroke="black" points="16,-40.8 16,-92.8 282,-92.8 282,-40.8 16,-40.8"/>
</g>
<g id="clust13" class="cluster">
<title>cluster_OrderModule</title>
<polygon fill="none" stroke="black" stroke-dasharray="1,5" points="298,-32.8 298,-100.8 456,-100.8 456,-32.8 298,-32.8"/>
</g>
<g id="clust18" class="cluster">
<title>cluster_OrderModule_providers</title>
<polygon fill="none" stroke="black" points="306,-40.8 306,-92.8 448,-92.8 448,-40.8 306,-40.8"/>
</g>
<g id="clust19" class="cluster">
<title>cluster_PrismaModule</title>
<polygon fill="none" stroke="black" stroke-dasharray="1,5" points="1414,-108.8 1414,-176.8 1704,-176.8 1704,-108.8 1414,-108.8"/>
</g>
<g id="clust22" class="cluster">
<title>cluster_PrismaModule_exports</title>
<polygon fill="none" stroke="black" points="1580,-116.8 1580,-168.8 1696,-168.8 1696,-116.8 1580,-116.8"/>
</g>
<g id="clust24" class="cluster">
<title>cluster_PrismaModule_providers</title>
<polygon fill="none" stroke="black" points="1422,-116.8 1422,-168.8 1572,-168.8 1572,-116.8 1422,-116.8"/>
</g>
<g id="clust25" class="cluster">
<title>cluster_ProductModule</title>
<polygon fill="none" stroke="black" stroke-dasharray="1,5" points="464,-32.8 464,-100.8 636,-100.8 636,-32.8 464,-32.8"/>
</g>
<g id="clust30" class="cluster">
<title>cluster_ProductModule_providers</title>
<polygon fill="none" stroke="black" points="472,-40.8 472,-92.8 628,-92.8 628,-40.8 472,-40.8"/>
</g>
<g id="clust31" class="cluster">
<title>cluster_UserModule</title>
<polygon fill="none" stroke="black" stroke-dasharray="1,5" points="644,-32.8 644,-100.8 792,-100.8 792,-32.8 644,-32.8"/>
</g>
<g id="clust36" class="cluster">
<title>cluster_UserModule_providers</title>
<polygon fill="none" stroke="black" points="652,-40.8 652,-92.8 784,-92.8 784,-40.8 652,-40.8"/>
</g>
<!-- AuthModule -->
<g id="node1" class="node">
<title>AuthModule</title>
<polygon fill="#8dd3c7" stroke="black" points="1041.55,-160.8 1038.55,-164.8 1017.55,-164.8 1014.55,-160.8 954.45,-160.8 954.45,-124.8 1041.55,-124.8 1041.55,-160.8"/>
<text text-anchor="middle" x="998" y="-138.6" font-family="Times,serif" font-size="14.00">AuthModule</text>
</g>
<!-- AppModule -->
<g id="node6" class="node">
<title>AppModule</title>
<polygon fill="#8dd3c7" stroke="black" points="1205.66,-225.8 1202.66,-229.8 1181.66,-229.8 1178.66,-225.8 1122.34,-225.8 1122.34,-189.8 1205.66,-189.8 1205.66,-225.8"/>
<text text-anchor="middle" x="1164" y="-203.6" font-family="Times,serif" font-size="14.00">AppModule</text>
</g>
<!-- AuthModule&#45;&gt;AppModule -->
<g id="edge1" class="edge">
<title>AuthModule&#45;&gt;AppModule</title>
<path fill="none" stroke="black" d="M998,-160.82C998,-178.17 998,-201.8 998,-201.8 998,-201.8 1112.11,-201.8 1112.11,-201.8"/>
<polygon fill="black" stroke="black" points="1112.11,-205.3 1122.11,-201.8 1112.11,-198.3 1112.11,-205.3"/>
</g>
<!-- OrderModule -->
<g id="node2" class="node">
<title>OrderModule</title>
<polygon fill="#8dd3c7" stroke="black" points="1152.2,-160.8 1149.2,-164.8 1128.2,-164.8 1125.2,-160.8 1059.8,-160.8 1059.8,-124.8 1152.2,-124.8 1152.2,-160.8"/>
<text text-anchor="middle" x="1106" y="-138.6" font-family="Times,serif" font-size="14.00">OrderModule</text>
</g>
<!-- OrderModule&#45;&gt;AppModule -->
<g id="edge2" class="edge">
<title>OrderModule&#45;&gt;AppModule</title>
<path fill="none" stroke="black" d="M1137.13,-160.91C1137.13,-160.91 1137.13,-179.79 1137.13,-179.79"/>
<polygon fill="black" stroke="black" points="1133.63,-179.79 1137.13,-189.79 1140.63,-179.79 1133.63,-179.79"/>
</g>
<!-- PrismaModule -->
<g id="node3" class="node">
<title>PrismaModule</title>
<polygon fill="#8dd3c7" stroke="black" points="1378.44,-84.8 1375.44,-88.8 1354.44,-88.8 1351.44,-84.8 1279.56,-84.8 1279.56,-48.8 1378.44,-48.8 1378.44,-84.8"/>
<text text-anchor="middle" x="1329" y="-62.6" font-family="Times,serif" font-size="14.00">PrismaModule</text>
</g>
<!-- PrismaModule&#45;&gt;AuthModule -->
<g id="edge7" class="edge">
<title>PrismaModule&#45;&gt;AuthModule</title>
<path fill="none" stroke="black" d="M1279.68,-60.8C1192.41,-60.8 1019.89,-60.8 1019.89,-60.8 1019.89,-60.8 1019.89,-114.6 1019.89,-114.6"/>
<polygon fill="black" stroke="black" points="1016.39,-114.6 1019.89,-124.6 1023.39,-114.6 1016.39,-114.6"/>
</g>
<!-- PrismaModule&#45;&gt;OrderModule -->
<g id="edge10" class="edge">
<title>PrismaModule&#45;&gt;OrderModule</title>
<path fill="none" stroke="black" d="M1279.53,-72.8C1218.12,-72.8 1121.37,-72.8 1121.37,-72.8 1121.37,-72.8 1121.37,-114.77 1121.37,-114.77"/>
<polygon fill="black" stroke="black" points="1117.87,-114.77 1121.37,-124.77 1124.87,-114.77 1117.87,-114.77"/>
</g>
<!-- ProductModule -->
<g id="node4" class="node">
<title>ProductModule</title>
<polygon fill="#8dd3c7" stroke="black" points="1273.6,-160.8 1270.6,-164.8 1249.6,-164.8 1246.6,-160.8 1170.4,-160.8 1170.4,-124.8 1273.6,-124.8 1273.6,-160.8"/>
<text text-anchor="middle" x="1222" y="-138.6" font-family="Times,serif" font-size="14.00">ProductModule</text>
</g>
<!-- PrismaModule&#45;&gt;ProductModule -->
<g id="edge14" class="edge">
<title>PrismaModule&#45;&gt;ProductModule</title>
<path fill="none" stroke="black" d="M1283.86,-84.81C1283.86,-107.29 1283.86,-142.8 1283.86,-142.8 1283.86,-142.8 1282.83,-142.8 1282.83,-142.8"/>
<polygon fill="black" stroke="black" points="1283.64,-139.3 1273.64,-142.8 1283.64,-146.3 1283.64,-139.3"/>
</g>
<!-- UserModule -->
<g id="node5" class="node">
<title>UserModule</title>
<polygon fill="#8dd3c7" stroke="black" points="1377.99,-160.8 1374.99,-164.8 1353.99,-164.8 1350.99,-160.8 1292.01,-160.8 1292.01,-124.8 1377.99,-124.8 1377.99,-160.8"/>
<text text-anchor="middle" x="1335" y="-138.6" font-family="Times,serif" font-size="14.00">UserModule</text>
</g>
<!-- PrismaModule&#45;&gt;UserModule -->
<g id="edge16" class="edge">
<title>PrismaModule&#45;&gt;UserModule</title>
<path fill="none" stroke="black" d="M1349.33,-84.81C1349.33,-84.81 1349.33,-114.65 1349.33,-114.65"/>
<polygon fill="black" stroke="black" points="1345.83,-114.65 1349.33,-124.65 1352.83,-114.65 1345.83,-114.65"/>
</g>
<!-- PrismaModule&#45;&gt;AppModule -->
<g id="edge3" class="edge">
<title>PrismaModule&#45;&gt;AppModule</title>
<path fill="none" stroke="black" d="M1287.93,-85.01C1287.93,-121.86 1287.93,-201.8 1287.93,-201.8 1287.93,-201.8 1215.96,-201.8 1215.96,-201.8"/>
<polygon fill="black" stroke="black" points="1215.96,-198.3 1205.96,-201.8 1215.96,-205.3 1215.96,-198.3"/>
</g>
<!-- PrismaService  -->
<g id="node11" class="node">
<title>PrismaService </title>
<polygon fill="#fb8072" stroke="black" points="1688.37,-160.8 1587.63,-160.8 1587.63,-124.8 1688.37,-124.8 1688.37,-160.8"/>
<text text-anchor="middle" x="1638" y="-138.6" font-family="Times,serif" font-size="14.00">PrismaService </text>
</g>
<!-- PrismaModule&#45;&gt;PrismaService  -->
<g id="edge12" class="edge">
<title>PrismaModule&#45;&gt;PrismaService </title>
<path fill="none" stroke="black" stroke-dasharray="5,2" d="M1378.3,-60.8C1465.54,-60.8 1638,-60.8 1638,-60.8 1638,-60.8 1638,-114.6 1638,-114.6"/>
<polygon fill="black" stroke="black" points="1634.5,-114.6 1638,-124.6 1641.5,-114.6 1634.5,-114.6"/>
</g>
<!-- ProductModule&#45;&gt;AppModule -->
<g id="edge4" class="edge">
<title>ProductModule&#45;&gt;AppModule</title>
<path fill="none" stroke="black" d="M1188.14,-160.91C1188.14,-160.91 1188.14,-179.79 1188.14,-179.79"/>
<polygon fill="black" stroke="black" points="1184.64,-179.79 1188.14,-189.79 1191.64,-179.79 1184.64,-179.79"/>
</g>
<!-- UserModule&#45;&gt;AppModule -->
<g id="edge5" class="edge">
<title>UserModule&#45;&gt;AppModule</title>
<path fill="none" stroke="black" d="M1335,-161.08C1335,-182.12 1335,-213.8 1335,-213.8 1335,-213.8 1215.83,-213.8 1215.83,-213.8"/>
<polygon fill="black" stroke="black" points="1215.83,-210.3 1205.83,-213.8 1215.83,-217.3 1215.83,-210.3"/>
</g>
<!-- AppService -->
<g id="node7" class="node">
<title>AppService</title>
<ellipse fill="#fdb462" stroke="black" cx="873" cy="-142.8" rx="56.75" ry="18"/>
<text text-anchor="middle" x="873" y="-138.6" font-family="Times,serif" font-size="14.00">AppService</text>
</g>
<!-- AppService&#45;&gt;AppModule -->
<g id="edge6" class="edge">
<title>AppService&#45;&gt;AppModule</title>
<path fill="none" stroke="black" d="M873,-161.08C873,-182.12 873,-213.8 873,-213.8 873,-213.8 1112.31,-213.8 1112.31,-213.8"/>
<polygon fill="black" stroke="black" points="1112.31,-217.3 1122.31,-213.8 1112.31,-210.3 1112.31,-217.3"/>
</g>
<!-- AuthService -->
<g id="node8" class="node">
<title>AuthService</title>
<ellipse fill="#fdb462" stroke="black" cx="215" cy="-66.8" rx="59.11" ry="18"/>
<text text-anchor="middle" x="215" y="-62.6" font-family="Times,serif" font-size="14.00">AuthService</text>
</g>
<!-- AuthService&#45;&gt;AuthModule -->
<g id="edge8" class="edge">
<title>AuthService&#45;&gt;AuthModule</title>
<path fill="none" stroke="black" d="M215,-84.84C215,-97.36 215,-111.8 215,-111.8 215,-111.8 998,-111.8 998,-111.8 998,-111.8 998,-114.77 998,-114.77"/>
<polygon fill="black" stroke="black" points="994.5,-114.77 998,-124.77 1001.5,-114.77 994.5,-114.77"/>
</g>
<!-- JwtStrategy -->
<g id="node9" class="node">
<title>JwtStrategy</title>
<ellipse fill="#fdb462" stroke="black" cx="81" cy="-66.8" rx="56.77" ry="18"/>
<text text-anchor="middle" x="81" y="-62.6" font-family="Times,serif" font-size="14.00">JwtStrategy</text>
</g>
<!-- JwtStrategy&#45;&gt;AuthModule -->
<g id="edge9" class="edge">
<title>JwtStrategy&#45;&gt;AuthModule</title>
<path fill="none" stroke="black" d="M81,-84.99C81,-99.98 81,-118.8 81,-118.8 81,-118.8 976.11,-118.8 976.11,-118.8 976.11,-118.8 976.11,-119.38 976.11,-119.38"/>
<polygon fill="black" stroke="black" points="972.61,-114.61 976.11,-124.61 979.61,-114.61 972.61,-114.61"/>
</g>
<!-- OrderService -->
<g id="node10" class="node">
<title>OrderService</title>
<ellipse fill="#fdb462" stroke="black" cx="377" cy="-66.8" rx="62.53" ry="18"/>
<text text-anchor="middle" x="377" y="-62.6" font-family="Times,serif" font-size="14.00">OrderService</text>
</g>
<!-- OrderService&#45;&gt;OrderModule -->
<g id="edge11" class="edge">
<title>OrderService&#45;&gt;OrderModule</title>
<path fill="none" stroke="black" d="M377,-84.91C377,-94.7 377,-104.8 377,-104.8 377,-104.8 1090.63,-104.8 1090.63,-104.8 1090.63,-104.8 1090.63,-114.69 1090.63,-114.69"/>
<polygon fill="black" stroke="black" points="1087.13,-114.69 1090.63,-124.69 1094.13,-114.69 1087.13,-114.69"/>
</g>
<!-- PrismaService -->
<g id="node12" class="node">
<title>PrismaService</title>
<ellipse fill="#fdb462" stroke="black" cx="1497" cy="-142.8" rx="66.64" ry="18"/>
<text text-anchor="middle" x="1497" y="-138.6" font-family="Times,serif" font-size="14.00">PrismaService</text>
</g>
<!-- PrismaService&#45;&gt;PrismaModule -->
<g id="edge13" class="edge">
<title>PrismaService&#45;&gt;PrismaModule</title>
<path fill="none" stroke="black" d="M1497,-124.77C1497,-104.03 1497,-72.8 1497,-72.8 1497,-72.8 1388.5,-72.8 1388.5,-72.8"/>
<polygon fill="black" stroke="black" points="1388.5,-69.3 1378.5,-72.8 1388.5,-76.3 1388.5,-69.3"/>
</g>
<!-- ProductService -->
<g id="node13" class="node">
<title>ProductService</title>
<ellipse fill="#fdb462" stroke="black" cx="550" cy="-66.8" rx="70.07" ry="18"/>
<text text-anchor="middle" x="550" y="-62.6" font-family="Times,serif" font-size="14.00">ProductService</text>
</g>
<!-- ProductService&#45;&gt;ProductModule -->
<g id="edge15" class="edge">
<title>ProductService&#45;&gt;ProductModule</title>
<path fill="none" stroke="black" d="M550,-85.04C550,-92.23 550,-98.8 550,-98.8 550,-98.8 1222,-98.8 1222,-98.8 1222,-98.8 1222,-114.65 1222,-114.65"/>
<polygon fill="black" stroke="black" points="1218.5,-114.65 1222,-124.65 1225.5,-114.65 1218.5,-114.65"/>
</g>
<!-- UserService -->
<g id="node14" class="node">
<title>UserService</title>
<ellipse fill="#fdb462" stroke="black" cx="718" cy="-66.8" rx="58.46" ry="18"/>
<text text-anchor="middle" x="718" y="-62.6" font-family="Times,serif" font-size="14.00">UserService</text>
</g>
<!-- UserService&#45;&gt;UserModule -->
<g id="edge17" class="edge">
<title>UserService&#45;&gt;UserModule</title>
<path fill="none" stroke="black" d="M718,-84.97C718,-88.85 718,-91.8 718,-91.8 718,-91.8 1320.67,-91.8 1320.67,-91.8 1320.67,-91.8 1320.67,-114.68 1320.67,-114.68"/>
<polygon fill="black" stroke="black" points="1317.17,-114.68 1320.67,-124.68 1324.17,-114.68 1317.17,-114.68"/>
</g>
</g>
</svg>
